<mxfile host="Electron" modified="2023-09-04T01:38:47.015Z" agent="Mozilla/5.0 (Windows NT 10.0; Win64; x64) AppleWebKit/537.36 (KHTML, like Gecko) draw.io/21.6.8 Chrome/114.0.5735.289 Electron/25.5.0 Safari/537.36" etag="BM2B8DcYHNiySbH33D9f" version="21.6.8" type="device">
  <diagram id="R2lEEEUBdFMjLlhIrx00" name="Page-1">
    <mxGraphModel dx="3090" dy="2089" grid="1" gridSize="10" guides="1" tooltips="1" connect="1" arrows="1" fold="1" page="1" pageScale="1" pageWidth="850" pageHeight="1100" math="0" shadow="0" extFonts="Permanent Marker^https://fonts.googleapis.com/css?family=Permanent+Marker">
      <root>
        <mxCell id="0" />
        <mxCell id="1" parent="0" />
        <mxCell id="dIzhY1TcO-5bTcwiUgbS-1" value="&lt;font style=&quot;font-size: 24px;&quot;&gt;Users&lt;/font&gt;" style="rounded=1;whiteSpace=wrap;html=1;fillColor=#9933FF;" parent="1" vertex="1">
          <mxGeometry x="180" y="20" width="120" height="60" as="geometry" />
        </mxCell>
        <mxCell id="dIzhY1TcO-5bTcwiUgbS-2" value="&lt;font style=&quot;font-size: 24px;&quot;&gt;conversation&lt;/font&gt;" style="rounded=1;whiteSpace=wrap;html=1;fillColor=#9933FF;" parent="1" vertex="1">
          <mxGeometry x="660" y="20" width="150" height="60" as="geometry" />
        </mxCell>
        <mxCell id="dIzhY1TcO-5bTcwiUgbS-3" value="lastname" style="ellipse;whiteSpace=wrap;html=1;" parent="1" vertex="1">
          <mxGeometry x="70" y="-220" width="120" height="60" as="geometry" />
        </mxCell>
        <mxCell id="dIzhY1TcO-5bTcwiUgbS-4" value="email" style="ellipse;whiteSpace=wrap;html=1;" parent="1" vertex="1">
          <mxGeometry x="70" y="-330" width="120" height="60" as="geometry" />
        </mxCell>
        <mxCell id="dIzhY1TcO-5bTcwiUgbS-5" value="reg_date" style="ellipse;whiteSpace=wrap;html=1;" parent="1" vertex="1">
          <mxGeometry x="60" y="-430" width="120" height="60" as="geometry" />
        </mxCell>
        <mxCell id="dIzhY1TcO-5bTcwiUgbS-6" value="status" style="ellipse;whiteSpace=wrap;html=1;" parent="1" vertex="1">
          <mxGeometry x="190" y="-540" width="120" height="60" as="geometry" />
        </mxCell>
        <mxCell id="dIzhY1TcO-5bTcwiUgbS-7" value="profile_pic" style="ellipse;whiteSpace=wrap;html=1;" parent="1" vertex="1">
          <mxGeometry x="300" y="-420" width="120" height="60" as="geometry" />
        </mxCell>
        <mxCell id="dIzhY1TcO-5bTcwiUgbS-8" value="password" style="ellipse;whiteSpace=wrap;html=1;" parent="1" vertex="1">
          <mxGeometry x="300" y="-330" width="120" height="60" as="geometry" />
        </mxCell>
        <mxCell id="dIzhY1TcO-5bTcwiUgbS-9" value="username" style="ellipse;whiteSpace=wrap;html=1;" parent="1" vertex="1">
          <mxGeometry x="300" y="-220" width="120" height="60" as="geometry" />
        </mxCell>
        <mxCell id="dIzhY1TcO-5bTcwiUgbS-10" value="firstname" style="ellipse;whiteSpace=wrap;html=1;" parent="1" vertex="1">
          <mxGeometry x="300" y="-120" width="120" height="60" as="geometry" />
        </mxCell>
        <mxCell id="dIzhY1TcO-5bTcwiUgbS-11" value="&lt;u&gt;&lt;b&gt;&lt;font style=&quot;font-size: 18px;&quot;&gt;user_id&lt;/font&gt;&lt;/b&gt;&lt;/u&gt;" style="ellipse;whiteSpace=wrap;html=1;fillColor=#99FFFF;" parent="1" vertex="1">
          <mxGeometry x="80" y="-120" width="120" height="60" as="geometry" />
        </mxCell>
        <mxCell id="dIzhY1TcO-5bTcwiUgbS-12" value="&lt;font style=&quot;font-size: 18px;&quot;&gt;&lt;b style=&quot;&quot;&gt;conver_id&lt;/b&gt;&lt;/font&gt;" style="ellipse;whiteSpace=wrap;html=1;fillColor=#99FFFF;" parent="1" vertex="1">
          <mxGeometry x="550" y="-100" width="120" height="50" as="geometry" />
        </mxCell>
        <mxCell id="dIzhY1TcO-5bTcwiUgbS-13" value="user1_id" style="ellipse;whiteSpace=wrap;html=1;fillColor=#FFCC99;" parent="1" vertex="1">
          <mxGeometry x="770" y="-100" width="120" height="50" as="geometry" />
        </mxCell>
        <mxCell id="dIzhY1TcO-5bTcwiUgbS-14" value="user2_id" style="ellipse;whiteSpace=wrap;html=1;" parent="1" vertex="1">
          <mxGeometry x="550" y="-215" width="120" height="50" as="geometry" />
        </mxCell>
        <mxCell id="dIzhY1TcO-5bTcwiUgbS-15" value="timestamp" style="ellipse;whiteSpace=wrap;html=1;" parent="1" vertex="1">
          <mxGeometry x="770" y="-220" width="120" height="50" as="geometry" />
        </mxCell>
        <mxCell id="dIzhY1TcO-5bTcwiUgbS-16" value="&lt;font style=&quot;font-size: 24px;&quot;&gt;messages&lt;/font&gt;" style="rounded=1;whiteSpace=wrap;html=1;fillColor=#9933FF;" parent="1" vertex="1">
          <mxGeometry x="-510" y="20" width="120" height="60" as="geometry" />
        </mxCell>
        <mxCell id="dIzhY1TcO-5bTcwiUgbS-17" value="converstion_id" style="ellipse;whiteSpace=wrap;html=1;fillColor=#FFCC99;" parent="1" vertex="1">
          <mxGeometry x="-400" y="-90" width="120" height="50" as="geometry" />
        </mxCell>
        <mxCell id="dIzhY1TcO-5bTcwiUgbS-18" value="&lt;b style=&quot;&quot;&gt;&lt;font style=&quot;font-size: 18px;&quot;&gt;id&lt;/font&gt;&lt;/b&gt;" style="ellipse;whiteSpace=wrap;html=1;fillColor=#99FFFF;" parent="1" vertex="1">
          <mxGeometry x="-630" y="-95" width="120" height="50" as="geometry" />
        </mxCell>
        <mxCell id="dIzhY1TcO-5bTcwiUgbS-19" value="receiver_id" style="ellipse;whiteSpace=wrap;html=1;" parent="1" vertex="1">
          <mxGeometry x="-400" y="-190" width="120" height="50" as="geometry" />
        </mxCell>
        <mxCell id="dIzhY1TcO-5bTcwiUgbS-20" value="sender_id" style="ellipse;whiteSpace=wrap;html=1;fillColor=#FFCC99;" parent="1" vertex="1">
          <mxGeometry x="-640" y="-190" width="120" height="50" as="geometry" />
        </mxCell>
        <mxCell id="dIzhY1TcO-5bTcwiUgbS-21" value="message" style="ellipse;whiteSpace=wrap;html=1;" parent="1" vertex="1">
          <mxGeometry x="-650" y="-290" width="120" height="50" as="geometry" />
        </mxCell>
        <mxCell id="dIzhY1TcO-5bTcwiUgbS-22" value="timestamp" style="ellipse;whiteSpace=wrap;html=1;" parent="1" vertex="1">
          <mxGeometry x="-390" y="-300" width="120" height="50" as="geometry" />
        </mxCell>
        <mxCell id="dIzhY1TcO-5bTcwiUgbS-23" value="read_status" style="ellipse;whiteSpace=wrap;html=1;" parent="1" vertex="1">
          <mxGeometry x="-530" y="-425" width="120" height="50" as="geometry" />
        </mxCell>
        <mxCell id="dIzhY1TcO-5bTcwiUgbS-25" value="&lt;font style=&quot;font-size: 18px;&quot;&gt;&lt;b&gt;user_id&lt;/b&gt;&lt;/font&gt;" style="ellipse;whiteSpace=wrap;html=1;fillColor=#CCCCFF;" parent="1" vertex="1">
          <mxGeometry x="-310" y="380" width="120" height="60" as="geometry" />
        </mxCell>
        <mxCell id="dIzhY1TcO-5bTcwiUgbS-26" value="&lt;font style=&quot;font-size: 18px;&quot;&gt;&lt;b&gt;contact_id&lt;/b&gt;&lt;/font&gt;" style="ellipse;whiteSpace=wrap;html=1;fillColor=#CCCCFF;" parent="1" vertex="1">
          <mxGeometry x="-40" y="380" width="120" height="60" as="geometry" />
        </mxCell>
        <mxCell id="dIzhY1TcO-5bTcwiUgbS-27" value="&lt;font style=&quot;font-size: 24px;&quot;&gt;notification&lt;/font&gt;" style="rounded=1;whiteSpace=wrap;html=1;fillColor=#9933FF;" parent="1" vertex="1">
          <mxGeometry x="490" y="200" width="140" height="60" as="geometry" />
        </mxCell>
        <mxCell id="dIzhY1TcO-5bTcwiUgbS-30" value="&lt;font style=&quot;font-size: 24px;&quot;&gt;contact&lt;/font&gt;" style="rounded=1;whiteSpace=wrap;html=1;fillColor=#9933FF;" parent="1" vertex="1">
          <mxGeometry x="-170" y="270" width="120" height="60" as="geometry" />
        </mxCell>
        <mxCell id="dIzhY1TcO-5bTcwiUgbS-31" value="sender_id" style="ellipse;whiteSpace=wrap;html=1;fillColor=#FFCC99;" parent="1" vertex="1">
          <mxGeometry x="690" y="270" width="120" height="50" as="geometry" />
        </mxCell>
        <mxCell id="dIzhY1TcO-5bTcwiUgbS-32" value="&lt;font style=&quot;font-size: 18px;&quot;&gt;&lt;b style=&quot;&quot;&gt;id&lt;/b&gt;&lt;/font&gt;" style="ellipse;whiteSpace=wrap;html=1;fillColor=#99FFFF;" parent="1" vertex="1">
          <mxGeometry x="340" y="275" width="120" height="50" as="geometry" />
        </mxCell>
        <mxCell id="dIzhY1TcO-5bTcwiUgbS-33" value="message" style="ellipse;whiteSpace=wrap;html=1;fillColor=#FFCC99;" parent="1" vertex="1">
          <mxGeometry x="690" y="385" width="120" height="50" as="geometry" />
        </mxCell>
        <mxCell id="dIzhY1TcO-5bTcwiUgbS-34" value="receiver_id" style="ellipse;whiteSpace=wrap;html=1;fillColor=#FFCC99;" parent="1" vertex="1">
          <mxGeometry x="340" y="390" width="120" height="50" as="geometry" />
        </mxCell>
        <mxCell id="dIzhY1TcO-5bTcwiUgbS-35" value="timestamp" style="ellipse;whiteSpace=wrap;html=1;" parent="1" vertex="1">
          <mxGeometry x="500" y="430" width="120" height="50" as="geometry" />
        </mxCell>
        <mxCell id="dIzhY1TcO-5bTcwiUgbS-36" value="" style="endArrow=none;html=1;rounded=0;" parent="1" edge="1">
          <mxGeometry width="50" height="50" relative="1" as="geometry">
            <mxPoint x="210" y="20" as="sourcePoint" />
            <mxPoint x="210" y="-400" as="targetPoint" />
          </mxGeometry>
        </mxCell>
        <mxCell id="dIzhY1TcO-5bTcwiUgbS-37" value="" style="endArrow=none;html=1;rounded=0;entryX=0.652;entryY=1.059;entryDx=0;entryDy=0;entryPerimeter=0;" parent="1" target="dIzhY1TcO-5bTcwiUgbS-6" edge="1">
          <mxGeometry width="50" height="50" relative="1" as="geometry">
            <mxPoint x="270" y="20" as="sourcePoint" />
            <mxPoint x="270" y="-400" as="targetPoint" />
          </mxGeometry>
        </mxCell>
        <mxCell id="dIzhY1TcO-5bTcwiUgbS-38" value="" style="endArrow=none;html=1;rounded=0;" parent="1" edge="1">
          <mxGeometry width="50" height="50" relative="1" as="geometry">
            <mxPoint x="270" y="-390.02" as="sourcePoint" />
            <mxPoint x="300" y="-390.02" as="targetPoint" />
          </mxGeometry>
        </mxCell>
        <mxCell id="dIzhY1TcO-5bTcwiUgbS-39" value="" style="endArrow=none;html=1;rounded=0;" parent="1" edge="1">
          <mxGeometry width="50" height="50" relative="1" as="geometry">
            <mxPoint x="270" y="-300.42999999999995" as="sourcePoint" />
            <mxPoint x="300" y="-300.42999999999995" as="targetPoint" />
          </mxGeometry>
        </mxCell>
        <mxCell id="dIzhY1TcO-5bTcwiUgbS-40" value="" style="endArrow=none;html=1;rounded=0;" parent="1" edge="1">
          <mxGeometry width="50" height="50" relative="1" as="geometry">
            <mxPoint x="270" y="-190.42999999999995" as="sourcePoint" />
            <mxPoint x="300" y="-190.42999999999995" as="targetPoint" />
          </mxGeometry>
        </mxCell>
        <mxCell id="dIzhY1TcO-5bTcwiUgbS-41" value="" style="endArrow=none;html=1;rounded=0;" parent="1" edge="1">
          <mxGeometry width="50" height="50" relative="1" as="geometry">
            <mxPoint x="270" y="-90.42999999999995" as="sourcePoint" />
            <mxPoint x="300" y="-90.42999999999995" as="targetPoint" />
          </mxGeometry>
        </mxCell>
        <mxCell id="dIzhY1TcO-5bTcwiUgbS-42" value="" style="endArrow=none;html=1;rounded=0;" parent="1" edge="1">
          <mxGeometry width="50" height="50" relative="1" as="geometry">
            <mxPoint x="200" y="-89.99999999999994" as="sourcePoint" />
            <mxPoint x="210" y="-90" as="targetPoint" />
          </mxGeometry>
        </mxCell>
        <mxCell id="dIzhY1TcO-5bTcwiUgbS-43" value="" style="endArrow=none;html=1;rounded=0;exitX=1;exitY=0.5;exitDx=0;exitDy=0;" parent="1" source="dIzhY1TcO-5bTcwiUgbS-3" edge="1">
          <mxGeometry width="50" height="50" relative="1" as="geometry">
            <mxPoint x="200" y="-189.99999999999994" as="sourcePoint" />
            <mxPoint x="210" y="-190" as="targetPoint" />
          </mxGeometry>
        </mxCell>
        <mxCell id="dIzhY1TcO-5bTcwiUgbS-44" value="" style="endArrow=none;html=1;rounded=0;exitX=1;exitY=0.5;exitDx=0;exitDy=0;" parent="1" edge="1">
          <mxGeometry width="50" height="50" relative="1" as="geometry">
            <mxPoint x="190" y="-300.14" as="sourcePoint" />
            <mxPoint x="210" y="-300.14" as="targetPoint" />
          </mxGeometry>
        </mxCell>
        <mxCell id="dIzhY1TcO-5bTcwiUgbS-45" value="" style="endArrow=none;html=1;rounded=0;exitX=1;exitY=0.5;exitDx=0;exitDy=0;" parent="1" source="dIzhY1TcO-5bTcwiUgbS-5" edge="1">
          <mxGeometry width="50" height="50" relative="1" as="geometry">
            <mxPoint x="190" y="-400.07" as="sourcePoint" />
            <mxPoint x="210" y="-400.07" as="targetPoint" />
          </mxGeometry>
        </mxCell>
        <mxCell id="dIzhY1TcO-5bTcwiUgbS-46" value="" style="endArrow=none;html=1;rounded=0;entryX=0.412;entryY=0.971;entryDx=0;entryDy=0;entryPerimeter=0;" parent="1" target="dIzhY1TcO-5bTcwiUgbS-23" edge="1">
          <mxGeometry width="50" height="50" relative="1" as="geometry">
            <mxPoint x="-481" y="20" as="sourcePoint" />
            <mxPoint x="-480" y="-370" as="targetPoint" />
          </mxGeometry>
        </mxCell>
        <mxCell id="dIzhY1TcO-5bTcwiUgbS-47" value="" style="endArrow=none;html=1;rounded=0;" parent="1" edge="1">
          <mxGeometry width="50" height="50" relative="1" as="geometry">
            <mxPoint x="-440" y="20" as="sourcePoint" />
            <mxPoint x="-440" y="-280" as="targetPoint" />
          </mxGeometry>
        </mxCell>
        <mxCell id="dIzhY1TcO-5bTcwiUgbS-48" value="" style="endArrow=none;html=1;rounded=0;entryX=0.001;entryY=0.4;entryDx=0;entryDy=0;entryPerimeter=0;" parent="1" target="dIzhY1TcO-5bTcwiUgbS-22" edge="1">
          <mxGeometry width="50" height="50" relative="1" as="geometry">
            <mxPoint x="-440" y="-280" as="sourcePoint" />
            <mxPoint x="-390" y="-330" as="targetPoint" />
          </mxGeometry>
        </mxCell>
        <mxCell id="dIzhY1TcO-5bTcwiUgbS-49" value="" style="endArrow=none;html=1;rounded=0;entryX=0;entryY=0.58;entryDx=0;entryDy=0;entryPerimeter=0;" parent="1" target="dIzhY1TcO-5bTcwiUgbS-17" edge="1">
          <mxGeometry width="50" height="50" relative="1" as="geometry">
            <mxPoint x="-440" y="-61" as="sourcePoint" />
            <mxPoint x="-400" y="-60" as="targetPoint" />
          </mxGeometry>
        </mxCell>
        <mxCell id="dIzhY1TcO-5bTcwiUgbS-50" value="" style="endArrow=none;html=1;rounded=0;" parent="1" edge="1">
          <mxGeometry width="50" height="50" relative="1" as="geometry">
            <mxPoint x="-440" y="-165" as="sourcePoint" />
            <mxPoint x="-400" y="-164" as="targetPoint" />
          </mxGeometry>
        </mxCell>
        <mxCell id="dIzhY1TcO-5bTcwiUgbS-51" value="" style="endArrow=none;html=1;rounded=0;exitX=1;exitY=0.5;exitDx=0;exitDy=0;" parent="1" source="dIzhY1TcO-5bTcwiUgbS-18" edge="1">
          <mxGeometry width="50" height="50" relative="1" as="geometry">
            <mxPoint x="-510" y="-73" as="sourcePoint" />
            <mxPoint x="-480" y="-70" as="targetPoint" />
          </mxGeometry>
        </mxCell>
        <mxCell id="dIzhY1TcO-5bTcwiUgbS-52" value="" style="endArrow=none;html=1;rounded=0;exitX=1;exitY=0.5;exitDx=0;exitDy=0;" parent="1" source="dIzhY1TcO-5bTcwiUgbS-20" edge="1">
          <mxGeometry width="50" height="50" relative="1" as="geometry">
            <mxPoint x="-510" y="-165.3" as="sourcePoint" />
            <mxPoint x="-480" y="-165.3" as="targetPoint" />
          </mxGeometry>
        </mxCell>
        <mxCell id="dIzhY1TcO-5bTcwiUgbS-53" value="" style="endArrow=none;html=1;rounded=0;exitX=1;exitY=0.5;exitDx=0;exitDy=0;" parent="1" source="dIzhY1TcO-5bTcwiUgbS-21" edge="1">
          <mxGeometry width="50" height="50" relative="1" as="geometry">
            <mxPoint x="-520" y="-265" as="sourcePoint" />
            <mxPoint x="-480" y="-265.3" as="targetPoint" />
          </mxGeometry>
        </mxCell>
        <mxCell id="dIzhY1TcO-5bTcwiUgbS-54" value="" style="endArrow=none;html=1;rounded=0;exitX=0.533;exitY=0;exitDx=0;exitDy=0;exitPerimeter=0;" parent="1" edge="1" source="dIzhY1TcO-5bTcwiUgbS-2">
          <mxGeometry width="50" height="50" relative="1" as="geometry">
            <mxPoint x="739.29" as="sourcePoint" />
            <mxPoint x="740" y="-200" as="targetPoint" />
          </mxGeometry>
        </mxCell>
        <mxCell id="dIzhY1TcO-5bTcwiUgbS-56" value="" style="endArrow=none;html=1;rounded=0;exitX=0.269;exitY=-0.007;exitDx=0;exitDy=0;exitPerimeter=0;" parent="1" edge="1" source="dIzhY1TcO-5bTcwiUgbS-2">
          <mxGeometry width="50" height="50" relative="1" as="geometry">
            <mxPoint x="700" as="sourcePoint" />
            <mxPoint x="700.71" y="-200" as="targetPoint" />
          </mxGeometry>
        </mxCell>
        <mxCell id="dIzhY1TcO-5bTcwiUgbS-57" value="" style="endArrow=none;html=1;rounded=0;entryX=0.013;entryY=0.389;entryDx=0;entryDy=0;entryPerimeter=0;" parent="1" target="dIzhY1TcO-5bTcwiUgbS-13" edge="1">
          <mxGeometry width="50" height="50" relative="1" as="geometry">
            <mxPoint x="740" y="-80" as="sourcePoint" />
            <mxPoint x="770" y="-80" as="targetPoint" />
          </mxGeometry>
        </mxCell>
        <mxCell id="dIzhY1TcO-5bTcwiUgbS-58" value="" style="endArrow=none;html=1;rounded=0;entryX=0.009;entryY=0.396;entryDx=0;entryDy=0;entryPerimeter=0;" parent="1" target="dIzhY1TcO-5bTcwiUgbS-15" edge="1">
          <mxGeometry width="50" height="50" relative="1" as="geometry">
            <mxPoint x="740" y="-200" as="sourcePoint" />
            <mxPoint x="770" y="-195.5" as="targetPoint" />
          </mxGeometry>
        </mxCell>
        <mxCell id="dIzhY1TcO-5bTcwiUgbS-59" value="" style="endArrow=none;html=1;rounded=0;entryX=0.009;entryY=0.396;entryDx=0;entryDy=0;entryPerimeter=0;exitX=0.943;exitY=0.288;exitDx=0;exitDy=0;exitPerimeter=0;" parent="1" source="dIzhY1TcO-5bTcwiUgbS-14" edge="1">
          <mxGeometry width="50" height="50" relative="1" as="geometry">
            <mxPoint x="670" y="-200" as="sourcePoint" />
            <mxPoint x="701" y="-200" as="targetPoint" />
          </mxGeometry>
        </mxCell>
        <mxCell id="dIzhY1TcO-5bTcwiUgbS-60" value="" style="endArrow=none;html=1;rounded=0;exitX=0.943;exitY=0.288;exitDx=0;exitDy=0;exitPerimeter=0;" parent="1" edge="1">
          <mxGeometry width="50" height="50" relative="1" as="geometry">
            <mxPoint x="670" y="-80" as="sourcePoint" />
            <mxPoint x="700" y="-79" as="targetPoint" />
          </mxGeometry>
        </mxCell>
        <mxCell id="dIzhY1TcO-5bTcwiUgbS-61" value="" style="endArrow=none;html=1;rounded=0;" parent="1" edge="1">
          <mxGeometry width="50" height="50" relative="1" as="geometry">
            <mxPoint x="-130" y="420" as="sourcePoint" />
            <mxPoint x="-130" y="330" as="targetPoint" />
          </mxGeometry>
        </mxCell>
        <mxCell id="dIzhY1TcO-5bTcwiUgbS-62" value="" style="endArrow=none;html=1;rounded=0;" parent="1" edge="1">
          <mxGeometry width="50" height="50" relative="1" as="geometry">
            <mxPoint x="-90" y="420" as="sourcePoint" />
            <mxPoint x="-90" y="330" as="targetPoint" />
          </mxGeometry>
        </mxCell>
        <mxCell id="dIzhY1TcO-5bTcwiUgbS-63" value="" style="endArrow=none;html=1;rounded=0;entryX=0;entryY=0.652;entryDx=0;entryDy=0;entryPerimeter=0;" parent="1" target="dIzhY1TcO-5bTcwiUgbS-26" edge="1">
          <mxGeometry width="50" height="50" relative="1" as="geometry">
            <mxPoint x="-90" y="419" as="sourcePoint" />
            <mxPoint x="10" y="510" as="targetPoint" />
          </mxGeometry>
        </mxCell>
        <mxCell id="dIzhY1TcO-5bTcwiUgbS-64" value="" style="endArrow=none;html=1;rounded=0;exitX=0.984;exitY=0.676;exitDx=0;exitDy=0;exitPerimeter=0;" parent="1" source="dIzhY1TcO-5bTcwiUgbS-25" edge="1">
          <mxGeometry width="50" height="50" relative="1" as="geometry">
            <mxPoint x="-170" y="510" as="sourcePoint" />
            <mxPoint x="-130" y="420" as="targetPoint" />
          </mxGeometry>
        </mxCell>
        <mxCell id="dIzhY1TcO-5bTcwiUgbS-65" value="" style="endArrow=none;html=1;rounded=0;entryX=0.643;entryY=1;entryDx=0;entryDy=0;entryPerimeter=0;" parent="1" target="dIzhY1TcO-5bTcwiUgbS-27" edge="1">
          <mxGeometry width="50" height="50" relative="1" as="geometry">
            <mxPoint x="580" y="420" as="sourcePoint" />
            <mxPoint x="570.0000000000002" y="269.99999999999966" as="targetPoint" />
          </mxGeometry>
        </mxCell>
        <mxCell id="dIzhY1TcO-5bTcwiUgbS-66" value="" style="endArrow=none;html=1;rounded=0;entryX=0.354;entryY=1.037;entryDx=0;entryDy=0;entryPerimeter=0;exitX=0.333;exitY=0.032;exitDx=0;exitDy=0;exitPerimeter=0;" parent="1" edge="1" source="dIzhY1TcO-5bTcwiUgbS-35">
          <mxGeometry width="50" height="50" relative="1" as="geometry">
            <mxPoint x="540" y="430" as="sourcePoint" />
            <mxPoint x="540.8399999999999" y="260" as="targetPoint" />
          </mxGeometry>
        </mxCell>
        <mxCell id="dIzhY1TcO-5bTcwiUgbS-67" value="" style="endArrow=none;html=1;rounded=0;entryX=0.001;entryY=0.527;entryDx=0;entryDy=0;entryPerimeter=0;" parent="1" target="dIzhY1TcO-5bTcwiUgbS-31" edge="1">
          <mxGeometry width="50" height="50" relative="1" as="geometry">
            <mxPoint x="580" y="295" as="sourcePoint" />
            <mxPoint x="670" y="300" as="targetPoint" />
          </mxGeometry>
        </mxCell>
        <mxCell id="dIzhY1TcO-5bTcwiUgbS-68" value="" style="endArrow=none;html=1;rounded=0;" parent="1" edge="1">
          <mxGeometry width="50" height="50" relative="1" as="geometry">
            <mxPoint x="460" y="420" as="sourcePoint" />
            <mxPoint x="540" y="420" as="targetPoint" />
          </mxGeometry>
        </mxCell>
        <mxCell id="dIzhY1TcO-5bTcwiUgbS-69" value="" style="endArrow=none;html=1;rounded=0;entryX=0.008;entryY=0.575;entryDx=0;entryDy=0;entryPerimeter=0;" parent="1" edge="1" target="dIzhY1TcO-5bTcwiUgbS-33">
          <mxGeometry width="50" height="50" relative="1" as="geometry">
            <mxPoint x="580" y="414.77" as="sourcePoint" />
            <mxPoint x="730" y="414.77" as="targetPoint" />
          </mxGeometry>
        </mxCell>
        <mxCell id="dIzhY1TcO-5bTcwiUgbS-70" value="" style="endArrow=none;html=1;rounded=0;exitX=1.001;exitY=0.408;exitDx=0;exitDy=0;exitPerimeter=0;" parent="1" edge="1" source="dIzhY1TcO-5bTcwiUgbS-32">
          <mxGeometry width="50" height="50" relative="1" as="geometry">
            <mxPoint x="480" y="294.5" as="sourcePoint" />
            <mxPoint x="540" y="295" as="targetPoint" />
          </mxGeometry>
        </mxCell>
        <mxCell id="Sp_IhwS-Qe53yHf_dLL5-1" value="" style="endArrow=none;dashed=1;html=1;rounded=0;" edge="1" parent="1">
          <mxGeometry width="50" height="50" relative="1" as="geometry">
            <mxPoint x="572.5" y="-180" as="sourcePoint" />
            <mxPoint x="647.5" y="-180" as="targetPoint" />
          </mxGeometry>
        </mxCell>
        <mxCell id="Sp_IhwS-Qe53yHf_dLL5-2" value="" style="endArrow=none;dashed=1;html=1;rounded=0;" edge="1" parent="1">
          <mxGeometry width="50" height="50" relative="1" as="geometry">
            <mxPoint x="800" y="-65.42" as="sourcePoint" />
            <mxPoint x="875" y="-65.42" as="targetPoint" />
          </mxGeometry>
        </mxCell>
        <mxCell id="Sp_IhwS-Qe53yHf_dLL5-3" value="" style="endArrow=none;dashed=1;html=1;rounded=0;" edge="1" parent="1">
          <mxGeometry width="50" height="50" relative="1" as="geometry">
            <mxPoint x="-380" y="-51.18000000000001" as="sourcePoint" />
            <mxPoint x="-310" y="-51.18000000000001" as="targetPoint" />
          </mxGeometry>
        </mxCell>
        <mxCell id="Sp_IhwS-Qe53yHf_dLL5-4" value="" style="endArrow=none;dashed=1;html=1;rounded=0;" edge="1" parent="1">
          <mxGeometry width="50" height="50" relative="1" as="geometry">
            <mxPoint x="-620" y="-150" as="sourcePoint" />
            <mxPoint x="-540" y="-150" as="targetPoint" />
          </mxGeometry>
        </mxCell>
        <mxCell id="Sp_IhwS-Qe53yHf_dLL5-5" value="" style="endArrow=none;dashed=1;html=1;rounded=0;" edge="1" parent="1">
          <mxGeometry width="50" height="50" relative="1" as="geometry">
            <mxPoint x="715" y="310" as="sourcePoint" />
            <mxPoint x="785" y="310" as="targetPoint" />
          </mxGeometry>
        </mxCell>
        <mxCell id="Sp_IhwS-Qe53yHf_dLL5-6" value="" style="endArrow=none;dashed=1;html=1;rounded=0;" edge="1" parent="1">
          <mxGeometry width="50" height="50" relative="1" as="geometry">
            <mxPoint x="715" y="420" as="sourcePoint" />
            <mxPoint x="785" y="420" as="targetPoint" />
          </mxGeometry>
        </mxCell>
        <mxCell id="Sp_IhwS-Qe53yHf_dLL5-7" value="" style="endArrow=none;dashed=1;html=1;rounded=0;" edge="1" parent="1">
          <mxGeometry width="50" height="50" relative="1" as="geometry">
            <mxPoint x="365" y="430" as="sourcePoint" />
            <mxPoint x="435" y="430" as="targetPoint" />
          </mxGeometry>
        </mxCell>
        <mxCell id="Sp_IhwS-Qe53yHf_dLL5-8" value="" style="endArrow=none;dashed=1;html=1;rounded=0;" edge="1" parent="1">
          <mxGeometry width="50" height="50" relative="1" as="geometry">
            <mxPoint x="-20" y="430" as="sourcePoint" />
            <mxPoint x="60" y="430" as="targetPoint" />
          </mxGeometry>
        </mxCell>
        <mxCell id="Sp_IhwS-Qe53yHf_dLL5-9" value="" style="endArrow=none;dashed=1;html=1;rounded=0;" edge="1" parent="1">
          <mxGeometry width="50" height="50" relative="1" as="geometry">
            <mxPoint x="-290" y="430" as="sourcePoint" />
            <mxPoint x="-210" y="430" as="targetPoint" />
          </mxGeometry>
        </mxCell>
        <mxCell id="Sp_IhwS-Qe53yHf_dLL5-10" value="has" style="rhombus;whiteSpace=wrap;html=1;fillColor=#00FF80;" vertex="1" parent="1">
          <mxGeometry x="-190" width="80" height="80" as="geometry" />
        </mxCell>
        <mxCell id="Sp_IhwS-Qe53yHf_dLL5-11" value="has" style="rhombus;whiteSpace=wrap;html=1;fillColor=#00FF80;" vertex="1" parent="1">
          <mxGeometry x="460" y="10" width="80" height="80" as="geometry" />
        </mxCell>
        <mxCell id="Sp_IhwS-Qe53yHf_dLL5-12" value="receive" style="rhombus;whiteSpace=wrap;html=1;fillColor=#00FF80;" vertex="1" parent="1">
          <mxGeometry x="340" y="100" width="80" height="80" as="geometry" />
        </mxCell>
        <mxCell id="Sp_IhwS-Qe53yHf_dLL5-13" value="has" style="rhombus;whiteSpace=wrap;html=1;fillColor=#00FF80;" vertex="1" parent="1">
          <mxGeometry x="50" y="130" width="80" height="80" as="geometry" />
        </mxCell>
        <mxCell id="Sp_IhwS-Qe53yHf_dLL5-18" value="" style="endArrow=none;html=1;rounded=0;exitX=1;exitY=0.5;exitDx=0;exitDy=0;" edge="1" parent="1" source="Sp_IhwS-Qe53yHf_dLL5-10">
          <mxGeometry relative="1" as="geometry">
            <mxPoint x="20" y="40" as="sourcePoint" />
            <mxPoint x="180" y="40" as="targetPoint" />
          </mxGeometry>
        </mxCell>
        <mxCell id="Sp_IhwS-Qe53yHf_dLL5-19" value="" style="endArrow=none;html=1;rounded=0;exitX=1;exitY=0.5;exitDx=0;exitDy=0;" edge="1" parent="1">
          <mxGeometry relative="1" as="geometry">
            <mxPoint x="-390" y="39.599999999999994" as="sourcePoint" />
            <mxPoint x="-190" y="40" as="targetPoint" />
          </mxGeometry>
        </mxCell>
        <mxCell id="Sp_IhwS-Qe53yHf_dLL5-20" value="" style="endArrow=none;html=1;rounded=0;exitX=1;exitY=0.5;exitDx=0;exitDy=0;entryX=0;entryY=1;entryDx=0;entryDy=0;" edge="1" parent="1" source="dIzhY1TcO-5bTcwiUgbS-30" target="Sp_IhwS-Qe53yHf_dLL5-13">
          <mxGeometry relative="1" as="geometry">
            <mxPoint x="-50" y="279.58" as="sourcePoint" />
            <mxPoint x="110" y="279.58" as="targetPoint" />
          </mxGeometry>
        </mxCell>
        <mxCell id="Sp_IhwS-Qe53yHf_dLL5-21" value="" style="endArrow=none;html=1;rounded=0;entryX=0.019;entryY=0.961;entryDx=0;entryDy=0;entryPerimeter=0;" edge="1" parent="1" source="Sp_IhwS-Qe53yHf_dLL5-13" target="dIzhY1TcO-5bTcwiUgbS-1">
          <mxGeometry relative="1" as="geometry">
            <mxPoint x="40" y="200" as="sourcePoint" />
            <mxPoint x="170" y="100" as="targetPoint" />
          </mxGeometry>
        </mxCell>
        <mxCell id="Sp_IhwS-Qe53yHf_dLL5-23" value="" style="endArrow=none;html=1;rounded=0;entryX=0;entryY=0.5;entryDx=0;entryDy=0;" edge="1" parent="1" target="Sp_IhwS-Qe53yHf_dLL5-11">
          <mxGeometry relative="1" as="geometry">
            <mxPoint x="300" y="48.33000000000001" as="sourcePoint" />
            <mxPoint x="460" y="48.33000000000001" as="targetPoint" />
          </mxGeometry>
        </mxCell>
        <mxCell id="Sp_IhwS-Qe53yHf_dLL5-24" value="" style="endArrow=none;html=1;rounded=0;entryX=0;entryY=0.5;entryDx=0;entryDy=0;" edge="1" parent="1" source="Sp_IhwS-Qe53yHf_dLL5-12" target="dIzhY1TcO-5bTcwiUgbS-27">
          <mxGeometry relative="1" as="geometry">
            <mxPoint x="300" y="250" as="sourcePoint" />
            <mxPoint x="460" y="250" as="targetPoint" />
          </mxGeometry>
        </mxCell>
        <mxCell id="Sp_IhwS-Qe53yHf_dLL5-25" value="" style="endArrow=none;html=1;rounded=0;entryX=0;entryY=0;entryDx=0;entryDy=0;exitX=0.998;exitY=0.914;exitDx=0;exitDy=0;exitPerimeter=0;" edge="1" parent="1" source="dIzhY1TcO-5bTcwiUgbS-1" target="Sp_IhwS-Qe53yHf_dLL5-12">
          <mxGeometry relative="1" as="geometry">
            <mxPoint x="300" y="80" as="sourcePoint" />
            <mxPoint x="425" y="88.33000000000001" as="targetPoint" />
          </mxGeometry>
        </mxCell>
        <mxCell id="Sp_IhwS-Qe53yHf_dLL5-26" value="" style="endArrow=none;html=1;rounded=0;entryX=0;entryY=0.5;entryDx=0;entryDy=0;" edge="1" parent="1" target="dIzhY1TcO-5bTcwiUgbS-2">
          <mxGeometry relative="1" as="geometry">
            <mxPoint x="540" y="49.79" as="sourcePoint" />
            <mxPoint x="620" y="50" as="targetPoint" />
          </mxGeometry>
        </mxCell>
        <mxCell id="Sp_IhwS-Qe53yHf_dLL5-27" value="" style="endArrow=none;html=1;rounded=0;" edge="1" parent="1">
          <mxGeometry relative="1" as="geometry">
            <mxPoint x="-585" y="-60" as="sourcePoint" />
            <mxPoint x="-555" y="-60" as="targetPoint" />
          </mxGeometry>
        </mxCell>
        <mxCell id="Sp_IhwS-Qe53yHf_dLL5-28" value="" style="endArrow=none;html=1;rounded=0;" edge="1" parent="1">
          <mxGeometry relative="1" as="geometry">
            <mxPoint x="-222.5" y="420" as="sourcePoint" />
            <mxPoint x="-277.4951156474991" y="419.9982292449994" as="targetPoint" />
          </mxGeometry>
        </mxCell>
        <mxCell id="Sp_IhwS-Qe53yHf_dLL5-29" value="" style="endArrow=none;html=1;rounded=0;" edge="1" parent="1">
          <mxGeometry relative="1" as="geometry">
            <mxPoint x="57.5" y="420" as="sourcePoint" />
            <mxPoint x="-17.49511564749912" y="419.9982292449994" as="targetPoint" />
          </mxGeometry>
        </mxCell>
        <mxCell id="Sp_IhwS-Qe53yHf_dLL5-30" value="" style="endArrow=none;html=1;rounded=0;" edge="1" parent="1">
          <mxGeometry relative="1" as="geometry">
            <mxPoint x="380" y="310" as="sourcePoint" />
            <mxPoint x="420" y="310" as="targetPoint" />
          </mxGeometry>
        </mxCell>
        <mxCell id="Sp_IhwS-Qe53yHf_dLL5-31" value="" style="endArrow=none;html=1;rounded=0;" edge="1" parent="1">
          <mxGeometry relative="1" as="geometry">
            <mxPoint x="570" y="-60" as="sourcePoint" />
            <mxPoint x="650" y="-60" as="targetPoint" />
          </mxGeometry>
        </mxCell>
        <mxCell id="Sp_IhwS-Qe53yHf_dLL5-34" value="" style="endArrow=none;html=1;rounded=0;" edge="1" parent="1">
          <mxGeometry relative="1" as="geometry">
            <mxPoint x="-390" y="40" as="sourcePoint" />
            <mxPoint x="-380" y="30" as="targetPoint" />
          </mxGeometry>
        </mxCell>
        <mxCell id="Sp_IhwS-Qe53yHf_dLL5-36" value="" style="endArrow=none;html=1;rounded=0;" edge="1" parent="1">
          <mxGeometry relative="1" as="geometry">
            <mxPoint x="-390" y="40" as="sourcePoint" />
            <mxPoint x="-380" y="50" as="targetPoint" />
          </mxGeometry>
        </mxCell>
        <mxCell id="Sp_IhwS-Qe53yHf_dLL5-37" value="" style="endArrow=none;html=1;rounded=0;" edge="1" parent="1">
          <mxGeometry relative="1" as="geometry">
            <mxPoint x="650" y="60" as="sourcePoint" />
            <mxPoint x="660" y="50" as="targetPoint" />
          </mxGeometry>
        </mxCell>
        <mxCell id="Sp_IhwS-Qe53yHf_dLL5-38" value="" style="endArrow=none;html=1;rounded=0;entryX=-0.003;entryY=0.493;entryDx=0;entryDy=0;entryPerimeter=0;" edge="1" parent="1" target="dIzhY1TcO-5bTcwiUgbS-2">
          <mxGeometry relative="1" as="geometry">
            <mxPoint x="650" y="40" as="sourcePoint" />
            <mxPoint x="650" y="35" as="targetPoint" />
          </mxGeometry>
        </mxCell>
        <mxCell id="Sp_IhwS-Qe53yHf_dLL5-39" value="" style="endArrow=none;html=1;rounded=0;" edge="1" parent="1">
          <mxGeometry relative="1" as="geometry">
            <mxPoint x="470" y="230" as="sourcePoint" />
            <mxPoint x="490" y="230" as="targetPoint" />
          </mxGeometry>
        </mxCell>
        <mxCell id="Sp_IhwS-Qe53yHf_dLL5-41" value="" style="endArrow=none;html=1;rounded=0;" edge="1" parent="1">
          <mxGeometry relative="1" as="geometry">
            <mxPoint x="480" y="210" as="sourcePoint" />
            <mxPoint x="490" y="230" as="targetPoint" />
          </mxGeometry>
        </mxCell>
        <mxCell id="Sp_IhwS-Qe53yHf_dLL5-42" value="" style="endArrow=none;html=1;rounded=0;" edge="1" parent="1">
          <mxGeometry relative="1" as="geometry">
            <mxPoint x="-50" y="299.88" as="sourcePoint" />
            <mxPoint x="-30" y="300" as="targetPoint" />
          </mxGeometry>
        </mxCell>
        <mxCell id="Sp_IhwS-Qe53yHf_dLL5-43" value="" style="endArrow=none;html=1;rounded=0;" edge="1" parent="1">
          <mxGeometry relative="1" as="geometry">
            <mxPoint x="-50" y="300" as="sourcePoint" />
            <mxPoint x="-40" y="280" as="targetPoint" />
          </mxGeometry>
        </mxCell>
      </root>
    </mxGraphModel>
  </diagram>
</mxfile>
